<?xml version="1.0" encoding="UTF-8" standalone="no"?>
<svg
   xmlns:dc="http://purl.org/dc/elements/1.1/"
   xmlns:cc="http://creativecommons.org/ns#"
   xmlns:rdf="http://www.w3.org/1999/02/22-rdf-syntax-ns#"
   xmlns:svg="http://www.w3.org/2000/svg"
   xmlns="http://www.w3.org/2000/svg"
   id="svg2180"
   version="1.1"
   viewBox="0 0 53.789052 82.336966"
   height="311.19482"
   width="203.29721">
  <defs
     id="defs2174" />
  <metadata
     id="metadata2177">
    <rdf:RDF>
      <cc:Work
         rdf:about="">
        <dc:format>image/svg+xml</dc:format>
        <dc:type
           rdf:resource="http://purl.org/dc/dcmitype/StillImage" />
        <dc:title></dc:title>
      </cc:Work>
    </rdf:RDF>
  </metadata>
  <g
     transform="translate(-74.127258,-90.774872)"
     id="layer1">
    <path
       id="path2902"
       d="m 113.14944,93.563394 c 0,0 -3.53723,1.061733 -7.81761,3.954796 -4.21903,2.85161 -9.091425,7.74293 -9.079026,14.1242 0.02555,1.45294 0.284101,2.89483 0.72864,4.32377 -0.99116,-0.86889 -2.032967,-1.61884 -3.024107,-2.23345 -3.564065,-2.21011 -6.435783,-2.9652 -6.435783,-2.9652 0,0 2.168157,1.29601 4.183724,3.7822 2.020207,2.49191 3.624892,6.12862 2.23139,9.96373 -0.976935,2.94377 -3.572579,5.66689 -6.628538,8.84442 -1.669066,1.67716 -3.427195,3.39588 -5.021916,5.24981 -1.2426,1.44457 -2.396977,2.98508 -3.325376,4.62246 -4.224745,7.64928 -1.440447,14.92471 2.975012,19.93728 4.329547,4.91505 9.316744,7.15202 9.316744,7.15202 0,0 -3.116464,-3.099 -4.739246,-7.99899 -1.686456,-5.09227 -1.319202,-11.22241 2.892846,-17.10129 0.899798,-1.2932 1.992855,-2.58149 3.141927,-3.90053 1.457187,-1.67274 3.068169,-3.46526 4.523753,-5.3418 1.78392,-2.21688 3.220776,-4.52624 4.028176,-6.8895 0.3545,0.4425 0.71025,0.88271 1.04593,1.30638 0.65501,0.82668 1.2771,1.64454 1.79162,2.47582 2.39598,3.79083 2.48296,7.75714 1.45418,10.98796 -0.99309,3.11874 -2.77606,5.05034 -2.77606,5.05034 0,0 2.55601,-1.54426 4.65243,-4.69739 2.00459,-3.01507 3.17095,-7.18173 1.3255,-11.49594 1.40699,1.64693 2.73909,3.27827 3.83904,4.9289 5.35132,7.85939 5.31912,15.9606 2.73368,22.50457 -2.49575,6.31695 -6.75876,10.17147 -6.75876,10.17147 0,0 6.03885,-3.02432 11.10424,-9.35602 5.17494,-6.46868 8.20289,-15.66959 2.83807,-25.23515 -1.17528,-2.05432 -2.63199,-3.9985 -4.19613,-5.83995 -2.00888,-2.36505 -4.21182,-4.58225 -6.30298,-6.7815 -3.84747,-4.15185 -7.04799,-7.83437 -8.12043,-11.77396 -1.51367,-5.14909 0.93114,-9.87014 3.74034,-13.027628 2.81041,-3.158865 5.67872,-4.741828 5.67872,-4.741828 z"
       style="fill:#6c2dc7;fill-opacity:1;stroke:none;stroke-width:1.36500001;stroke-linecap:round;stroke-linejoin:round;stroke-miterlimit:4;stroke-dasharray:none;stroke-opacity:0.8" />
    <path
       id="path2938"
       d="m 113.23295,90.775855 v 5.16e-4 h -5.2e-4 c -0.0842,-0.0027 -0.17,-0.0019 -0.25735,0.0036 h -0.004 c -0.21263,0.01348 -0.42098,0.05185 -0.62115,0.111621 l 0.14108,-0.02067 -0.14573,0.0217 c 0,0 -3.96194,1.199179 -8.57415,4.316533 -4.446906,3.005631 -9.861921,8.283095 -10.235553,15.629535 -0.680423,-0.35872 -1.014129,-0.53488 -1.825728,-0.96273 -0.840502,-0.44308 -1.659998,-0.87499 -2.269627,-1.19631 -0.304816,-0.16066 -0.557543,-0.29367 -0.733806,-0.38654 -0.08813,-0.0464 -0.15688,-0.0831 -0.204121,-0.108 -0.02362,-0.0124 -0.04175,-0.0218 -0.05426,-0.0284 -0.0063,-0.003 -0.01121,-0.006 -0.01499,-0.008 -0.0019,-9.9e-4 -0.0036,-0.002 -0.0057,-0.003 -0.001,-5.5e-4 -0.0019,-6.8e-4 -0.0047,-0.002 -0.0027,-0.001 -0.187574,-0.0723 -0.187584,-0.0724 l -0.0041,-5.2e-4 c -1.431573,-0.37665 -2.778971,0.42311 -3.280418,1.61696 -0.501713,1.19448 -0.12728,2.71691 1.145149,3.4742 -0.0049,-0.003 0.0023,0.002 0.0078,0.005 0.01071,0.007 0.02845,0.0178 0.05219,0.0331 0.04748,0.0304 0.119986,0.078 0.21394,0.14263 0.187907,0.12924 0.461259,0.32652 0.789098,0.59066 0.655678,0.52828 1.529353,1.32409 2.3797,2.37298 1.650299,2.03563 2.742292,4.5978 1.778704,7.25331 l -0.01137,0.031 -0.01395,0.0413 c 0.0044,-0.0141 -0.0034,0.01 -0.0016,0.004 -0.655386,1.97486 -2.954406,4.63143 -5.990847,7.78867 -1.64062,1.64792 -3.438583,3.40189 -5.12682,5.36453 -1.324581,1.53988 -2.590104,3.21949 -3.636986,5.06584 l -0.01654,0.0269 c -4.84541,8.77305 -1.610259,17.52734 3.324863,23.12986 4.754747,5.39775 10.263613,7.84907 10.266039,7.85016 v 5.2e-4 c 1.306838,0.58657 2.725672,0.074 3.439065,-0.9617 0.713362,-1.03579 0.686491,-2.5439 -0.327628,-3.55586 -0.0045,-0.005 -2.66328,-2.68072 -4.061251,-6.9019 -1.442964,-4.35711 -1.217705,-9.38808 2.503723,-14.58929 l 0.03101,-0.0408 c 0.78989,-1.13524 1.823577,-2.36301 2.955894,-3.66283 1.429411,-1.64084 3.070678,-3.46467 4.603338,-5.43791 0.915296,-1.13839 1.598466,-2.31612 2.230866,-3.48816 0.0135,0.0207 0.04,0.0518 0.0527,0.0718 l -0.0372,-0.10025 0.0791,0.1602 0.0186,0.0284 -0.0145,-0.0202 c 1.94585,3.082 1.97189,6.07394 1.15239,8.64753 -0.80433,2.52594 -2.17041,4.00751 -2.17041,4.00751 l -5.2e-4,5.2e-4 c -1.001196,1.08703 -0.929306,2.64972 -0.11059,3.65249 0.81902,1.00315 2.33702,1.38659 3.60288,0.62218 0,0 3.08499,-1.86036 5.53196,-5.54075 0.8512,-1.28027 1.43317,-2.75786 1.83452,-4.31963 3.45161,6.3427 3.21349,12.46705 1.1498,17.69039 -2.23811,5.66485 -6.0275,9.11845 -6.03529,9.12554 -1.10413,0.99585 -1.16972,2.57008 -0.43615,3.64423 0.73435,1.07529 2.22673,1.58661 3.55637,0.91777 l 0.0176,-0.009 c 0.004,-0.002 6.54295,-3.26144 12.0127,-10.09861 5.65892,-7.07364 9.05052,-17.6936 3.10317,-28.3192 l 0.01,0.0176 -0.0176,-0.0331 -0.0139,-0.0253 c -1.29141,-2.25733 -2.85297,-4.33305 -4.49068,-6.26112 -2.08203,-2.45116 -4.30153,-4.68111 -6.34535,-6.82852 l -0.005,-0.006 -0.0341,-0.0377 -0.008,-0.008 c -3.78918,-4.08935 -6.64368,-7.61665 -7.45949,-10.58127 l 0.0119,0.0377 v 0.13798 l -0.0372,-0.26097 c -1.146,-3.91692 0.72148,-7.64939 3.15019,-10.37921 2.49434,-2.803464 4.9381,-4.149455 4.94027,-4.150646 1.2172,-0.668316 1.67819,-2.048544 1.33584,-3.22306 -0.32047,-1.099442 -1.31989,-1.967057 -2.59571,-2.007629 z m -36.697497,51.079055 0.03876,-0.062 -0.01188,0.0176 z M 113.17404,92.633622 c 0.4019,0.01278 0.7837,0.374639 0.86971,0.669727 0.0919,0.31518 -0.0538,0.859046 -0.44597,1.074353 -0.002,0.0012 -2.73244,1.507735 -5.43429,4.544426 -2.67726,3.009182 -4.9316,7.396962 -3.545,12.136212 l -0.0279,-0.19689 0.0331,0.21807 0.0134,0.0429 -0.01,-0.0341 c 0.99109,3.64071 4.06139,7.23849 7.89668,11.3776 l -0.008,-0.008 0.0393,0.0434 0.016,0.017 c 2.06827,2.17363 4.26611,4.38302 6.29109,6.76703 1.58772,1.86921 3.0778,3.85583 4.29173,5.9769 l 0.006,0.0119 0.01,0.0176 c 5.54537,9.90743 2.39278,19.59382 -2.93264,26.25059 -5.17875,6.47341 -11.36516,9.58319 -11.41584,9.60872 -0.42541,0.21274 -0.99835,-0.0322 -1.18494,-0.3054 -0.18667,-0.27335 -0.20653,-0.89777 0.14624,-1.21595 l 0.002,-0.002 c 0,0 4.10742,-3.72064 6.51743,-9.82059 1.70259,-4.30938 1.91231,-10.99538 -0.0908,-17.12364 -0.90215,-2.75995 -2.65261,-5.30025 -4.22334,-7.64453 l 0.17693,1.60217 c -0.0886,3.03261 -1.04994,6.46661 -2.12439,8.08268 -2.21047,3.32467 -4.94492,4.97954 -4.94492,4.97954 v -5.2e-4 c -0.40499,0.24456 -0.99303,0.0498 -1.20199,-0.20619 -0.20895,-0.25591 -0.28241,-0.86972 0.0377,-1.21801 l 5.2e-4,-5.1e-4 c 7.6e-4,-8.3e-4 1.64717,-1.78867 2.57503,-4.70256 0.955,-2.9991 0.88694,-6.65805 -1.35185,-10.20403 l 0.0785,0.15916 -0.10077,-0.19223 c -0.31036,-0.49779 -0.62663,-1.40881 -0.95224,-1.84456 l -0.8036,-1.33718 c -0.80772,1.57621 -2.451606,4.99685 -3.571996,6.39033 l -0.01,0.0124 c -1.480923,1.90785 -3.099493,3.70865 -4.546494,5.36969 -1.144296,1.31357 -2.215861,2.58016 -3.079914,3.82199 l 0.04082,-0.0543 -0.0155,0.0191 -0.04496,0.061 c -2.86e-4,4e-4 -7.49e-4,6.4e-4 -0.001,0.001 -8.36e-4,0.001 -0.0012,0.002 -0.0021,0.004 -4.031184,5.64025 -4.350332,11.41494 -2.750735,16.24501 1.547508,4.67271 4.511352,7.63209 4.511352,7.63209 l 0.0016,0.002 c 0.325181,0.32449 0.296728,0.9142 0.109554,1.18597 -0.187143,0.2717 -0.727927,0.50808 -1.147218,0.31988 -0.0042,-0.002 -5.163753,-2.31047 -9.632487,-7.38353 -4.573204,-5.19286 -7.514688,-12.9799 -3.098869,-20.98984 l 0.01344,-0.0217 c 0.968184,-1.70755 2.158965,-3.2935 3.429248,-4.77025 1.623005,-1.88681 3.38886,-3.61226 5.045686,-5.27668 l 0.01137,-0.0114 c 3.059562,-3.18128 5.531871,-5.82949 6.415627,-8.49199 v -5.2e-4 l 5.18e-4,-0.001 0.0026,-0.009 c -0.01618,0.0508 -0.01271,0.044 0.0078,-0.0212 1.245931,-3.43993 -0.195501,-6.7254 -2.083078,-9.05371 -0.952458,-1.17485 -1.920909,-2.05581 -2.657718,-2.64945 -0.368403,-0.29682 -0.679104,-0.52176 -0.901753,-0.67489 -0.111326,-0.0766 -0.200575,-0.13499 -0.264068,-0.1757 -0.03174,-0.0203 -0.0571,-0.0362 -0.07545,-0.0475 -0.01834,-0.0114 -0.08958,-0.055 -0.02894,-0.0181 l -0.0078,-0.005 c -0.407998,-0.24282 -0.510987,-0.85194 -0.382405,-1.15807 0.123547,-0.29414 0.598398,-0.62265 1.041797,-0.54053 0.04059,0.0214 0.0764,0.0403 0.134358,0.0708 0.176094,0.0928 0.428001,0.22538 0.732772,0.38602 0.609547,0.32127 1.429149,0.75375 2.26963,1.19682 1.680961,0.88615 3.445589,1.81649 3.781681,1.99368 h 5.16e-4 c 0.03722,0.0196 1.33251,0.7623 1.33251,0.7623 l -0.431645,-1.84537 -0.20619,-1.15777 c 0.103354,-6.74207 5.188221,-11.614939 9.492291,-14.524028 4.38484,-2.963675 8.06035,-4.074324 8.06669,-4.076238 l 0.004,-5.17e-4 c 0.0692,-0.02068 0.13819,-0.03286 0.20618,-0.03721 h 5.2e-4 0.003 c 0.0268,-0.0017 0.0547,-0.0024 0.0822,-0.0016 z m -20.108847,31.555698 -0.01033,0.0305 0.0072,-0.0196 0.001,-0.003 c 9.44e-4,-0.003 0.0011,-0.005 0.0021,-0.008 z m 10.048997,9.11882 0.0145,0.0222 -0.47072,-1.04187 z m -11.424624,13.50874 -0.01033,0.0139 0.0067,-0.01 0.0016,-0.002 c 4.2e-5,-6e-5 0.0021,-0.002 0.0021,-0.002 z"
       style="color:#000000;font-style:normal;font-variant:normal;font-weight:normal;font-stretch:normal;font-size:medium;line-height:normal;font-family:sans-serif;font-variant-ligatures:normal;font-variant-position:normal;font-variant-caps:normal;font-variant-numeric:normal;font-variant-alternates:normal;font-feature-settings:normal;text-indent:0;text-align:start;text-decoration:none;text-decoration-line:none;text-decoration-style:solid;text-decoration-color:#000000;letter-spacing:normal;word-spacing:normal;text-transform:none;writing-mode:lr-tb;direction:ltr;text-orientation:mixed;dominant-baseline:auto;baseline-shift:baseline;text-anchor:start;white-space:normal;shape-padding:0;clip-rule:nonzero;display:inline;overflow:visible;visibility:visible;opacity:1;isolation:auto;mix-blend-mode:normal;color-interpolation:sRGB;color-interpolation-filters:linearRGB;solid-color:#000000;solid-opacity:1;vector-effect:none;fill:#ffcc00;fill-opacity:1;fill-rule:nonzero;stroke:none;stroke-width:1.85869789;stroke-linecap:round;stroke-linejoin:bevel;stroke-miterlimit:4;stroke-dasharray:none;stroke-dashoffset:0;stroke-opacity:1;paint-order:stroke fill markers;color-rendering:auto;image-rendering:auto;shape-rendering:auto;text-rendering:auto;enable-background:accumulate" />
  </g>
</svg>
